<svg xmlns="http://www.w3.org/2000/svg" viewBox="0 0 512 512"><defs><style>.o{fill:#999;}</style></defs><path class="o" d="M443.55,134.74c-16.07-14.25-101.61-89.45-150.43-120.5a44.49,44.49,0,0,0-65.25,0C179.05,45.29,93.51,120.49,77.43,134.74H9V512H503V134.74ZM280.44,27c.05,0,.06.1.1.16a27.46,27.46,0,0,1,5.93,11c.1.38.26.74.35,1.12a25.9,25.9,0,0,1,.62,5.66,26.95,26.95,0,1,1-53.9,0,26.69,26.69,0,0,1,.62-5.67c.08-.38.26-.74.35-1.12a27.61,27.61,0,0,1,5.93-11c.05-.05.06-.11.1-.16a26.59,26.59,0,0,1,39.9,0ZM215.58,44.46v.45a44.91,44.91,0,1,0,89.82,0v-.45c37.46,27.25,85.37,68.1,110.89,90.28H104.69C130.21,112.56,178.13,71.71,215.58,44.46ZM467.09,476.07H44.91V170.67H467.09Z"/><path class="o" d="M268.41,381.47l43.18,43.18a9,9,0,1,1-12.7,12.7l-92.53-92.52L77.69,458.11H449.12V381.22l-98.24-90.06Z"/><path class="o" d="M213.1,326.16l42.6,42.61,88-96.36a9,9,0,0,1,6.23-2.92,8.77,8.77,0,0,1,6.47,2.36l92.74,85V188.63H62.88V447.21L200.81,325.77A9,9,0,0,1,213.1,326.16Zm-78.36-10.53a50,50,0,1,1,50-50A50.08,50.08,0,0,1,134.74,315.63Z"/></svg>