<svg xmlns="http://www.w3.org/2000/svg" viewBox="0 0 1792 3584"><defs><style>.c{fill:#fff;}</style></defs><path class="c" d="M832,352V1440q0,26-19,45t-45,19q-26,0-45-19L390,1152H128q-26,0-45-19t-19-45V704q0-26,19-45t45-19H390L723,307q19-19,45-19t45,19Q832,326,832,352Z"/><path class="c" d="M832,2144V3232q0,26-19,45t-45,19q-26,0-45-19L390,2944H128q-26,0-45-19t-19-45V2496q0-26,19-45t45-19H390l333-333q19-19,45-19t45,19Q832,2118,832,2144Zm384,544q0,76-42.5,141.5T1061,2923q-10,5-25,5-26,0-45-18.5T972,2864q0-21,12-35.5a117.2,117.2,0,0,1,29-25q17-10.5,34-23t29-36q12-23.51,12-56.5t-12-56.5q-12-23.51-29-36t-34-23a117.2,117.2,0,0,1-29-25Q972,2533,972,2512q0-27,19-45.5t45-18.5q15,0,25,5,70,27,112.5,93T1216,2688Zm256,0q0,153-85,282.5T1162,3159a69.62,69.62,0,0,1-25,5q-27,0-46-19t-19-45q0-39,39-59,56-29,76-44a382.4,382.4,0,0,0,0-618q-20-15-76-44-39-20-39-59,0-26,19-45t45-19a72,72,0,0,1,26,5q140,59,225,188.5T1472,2688Zm256,0q0,230-127,422.5T1263,3394a72,72,0,0,1-26,5q-26,0-45-19t-19-45q0-36,39-59a224.1,224.1,0,0,1,22.5-10.5A224.1,224.1,0,0,0,1257,3255a760.74,760.74,0,0,0,82-51q123-91,192-227t69-289q0-153-69-289t-192-227a760.74,760.74,0,0,0-82-51,224.1,224.1,0,0,0-22.5-10.5A224.1,224.1,0,0,1,1212,2100q-39-23-39-59,0-26,19-45t45-19a72,72,0,0,1,26,5q211,91,338,283.5T1728,2688Z"/></svg>