<svg xmlns="http://www.w3.org/2000/svg" viewBox="0 0 512 512"><defs><style>.m{fill:#fff;}</style></defs><path class="m" d="M495.46,9.65H16.55A16.57,16.57,0,0,0,0,26.2V99.74a16.56,16.56,0,0,0,16.55,16.54h478.9A16.57,16.57,0,0,0,512,99.74V26.2A16.56,16.56,0,0,0,495.46,9.65Z"/><path class="m" d="M495.46,202.69H16.55A16.56,16.56,0,0,0,0,219.23v73.54a16.56,16.56,0,0,0,16.55,16.55h478.9A16.57,16.57,0,0,0,512,292.77V219.23A16.55,16.55,0,0,0,495.46,202.69Z"/><path class="m" d="M495.46,395.72H16.55A16.56,16.56,0,0,0,0,412.27v73.54a16.56,16.56,0,0,0,16.55,16.54h478.9A16.57,16.57,0,0,0,512,485.81V412.27A16.55,16.55,0,0,0,495.46,395.72Z"/></svg>